<svg xmlns="http://www.w3.org/2000/svg" viewBox="0 0 64 64" width="64" height="64">
  <rect width="64" height="64" rx="14" fill="#0A1A2F"/>
  <g transform="translate(32,32) rotate(-30) translate(-14,-20)">
    <path d="M14 0 C14 0, 4 16, 6 32 C6 34, 8 38, 14 40 C20 38, 22 34, 22 32 C24 16, 14 0, 14 0Z" fill="#D4AF37" opacity="0.9"/>
    <path d="M14 0 C14 0, 14 16, 14 40" stroke="#0A1A2F" stroke-width="1.2" fill="none" stroke-linecap="round"/>
    <path d="M14 10 C11 14, 8 20, 7 28" stroke="#0A1A2F" stroke-width="0.7" fill="none" opacity="0.5"/>
    <path d="M14 10 C17 14, 20 20, 21 28" stroke="#0A1A2F" stroke-width="0.7" fill="none" opacity="0.5"/>
    <path d="M14 16 C12 18, 9 22, 8 28" stroke="#0A1A2F" stroke-width="0.5" fill="none" opacity="0.3"/>
    <path d="M14 16 C16 18, 19 22, 20 28" stroke="#0A1A2F" stroke-width="0.5" fill="none" opacity="0.3"/>
  </g>
</svg>
